<svg fill="none" height="28" viewBox="0 0 28 28" width="28" xmlns="http://www.w3.org/2000/svg"><g fill="#fff"><path d="m10.694 21.9999c.3944.0053.7784.1271 1.1038.35.3253.2229.5775.5371.7248.903s.1831.7671.103 1.1533c-.0802.3862-.2727.7401-.5535 1.0171-.2807.2771-.6371.4649-1.0243.5399-.3872.0751-.788.0339-1.15188-.1182-.3639-.1521-.6747-.4084-.8933-.7367-.21861-.3283-.33527-.7139-.3353-1.1084-.00002-.2649.05258-.5271.15475-.7715s.25188-.4661.44043-.6522.41219-.3328.65793-.4317c.24577-.099.50867-.1481.77357-.1446zm0-1.3333c-.6604-.0053-1.30746.1857-1.85912.5488-.55166.363-.98305.8817-1.23944 1.4903s-.32621 1.2797-.20062 1.928c.12559.6484.44093 1.2448.90603 1.7137.4651.4688 1.05898.789 1.70625.9197.6474.1308 1.319.0664 1.9296-.1851s1.1328-.6787 1.5003-1.2274c.3674-.5487.5636-1.1943.5637-1.8547 0-.8794-.3475-1.7232-.9669-2.3476s-1.4604-.9787-2.3398-.9857z" opacity=".64"/><path d="m21.3733 21.9998c.3938.0079.7765.1319 1.1001.3564s.5737.5395.7189.9056c.1453.3661.1792.7669.0976 1.1522s-.2752.7379-.5564 1.0136c-.2813.2757-.6376.4622-1.0245.5362-.3868.074-.7869.0321-1.15-.1203-.3631-.1525-.6731-.4088-.8912-.7368-.218-.328-.3344-.713-.3345-1.1069.0035-.5293.2154-1.036.5897-1.4103s.881-.5862 1.4103-.5897zm-.04-1.3333c-.6592 0-1.3037.1955-1.8519.5618-.5481.3662-.9754.8868-1.2277 1.4959s-.3183 1.2793-.1896 1.9259c.1286.6466.446 1.2406.9122 1.7068.4662.4661 1.0601.7836 1.7067.9122s1.3169.0626 1.9259-.1897c.6091-.2523 1.1297-.6795 1.496-1.2277.3663-.5481.5618-1.1926.5618-1.8519 0-.8771-.3457-1.719-.9622-2.343-.6165-.6239-1.4541-.9798-2.3312-.9903z" opacity=".64"/><path d="m21.3203 16.6664h-11.32c-.75835-.0102-1.49013-.2807-2.07273-.7662-.58259-.4854-.9806-1.1565-1.12732-1.9005l-2.21333-9.81333c-.02644-.10029-.02959-.2053-.0092-.307.02038-.10169.06376-.19737.12681-.27973.06305-.08235.1441-.14919.23696-.1954.09285-.04621.19505-.07056.29876-.0712h18.74665c.4423-.00181.8804.08442 1.289.25364s.7795.41805 1.0909.73201c.3115.31396.5574.68676.7234 1.09668.166.40993.2487.84878.2434 1.291v4.00003c-.0141 1.5855-.6538 3.1014-1.78 4.2176s-2.6477 1.7424-4.2333 1.7424zm-15.24005-12.00003 2.02667 9.05333c.0848.4443.31866.8463.66292 1.1397.34426.2933.77831.4604 1.23046.4736h11.2666c.6196.0089 1.2347-.1057 1.8095-.3371.5747-.2314 1.0977-.5749 1.5383-1.0106.4406-.4356.79-.9546 1.0279-1.5268.2379-.5721.3595-1.1859.3577-1.8055v-3.99997c-.0018-.26264-.0553-.52237-.1574-.76435-.1021-.24199-.2509-.46149-.4378-.64597-.187-.18448-.4085-.33033-.6518-.42921-.2433-.09889-.5037-.14889-.7664-.14713z"/><path d="m22.0003 20.0132h-9.0533c-1.3649.0055-2.6907-.4555-3.75769-1.3066-1.06698-.8512-1.81109-2.0414-2.10898-3.3734l-2.66667-11.76002c-.09605-.44017-.3379-.83502-.68638-1.12058-.34847-.28555-.78316-.44509-1.23362-.45275h-1.16c-.17574-.00341-.343337-.07475-.467629-.19904s-.195625-.29188-.199039-.46763c0-.17681.070238-.346377.195262-.471401.125025-.125024.294596-.195262.471406-.195262h1.16c.76748-.002134 1.51181.262772 2.10538.749303.59357.48653.99941 1.16439 1.14795 1.91736l2.66667 11.76002c.22844 1.0382.80548 1.9669 1.63514 2.6316.8296.6647 1.8618 1.0252 2.9249 1.0217h9.0266c.1768 0 .3464.0703.4714.1953.1251.125.1953.2946.1953.4714-.0166.165-.0941.3179-.2174.4289-.1232.1109-.2834.1719-.4493.1711z" opacity=".8"/></g></svg>