<svg fill="none" height="40" viewBox="0 0 40 40" width="40" xmlns="http://www.w3.org/2000/svg"><path d="m15.8584 14.9508c.6772-.5849 1.4412-1.0134 2.2949-1.2769 1.0533-.3242 2.1212-.359 3.2006-.1389.6424.1302 1.2443.3705 1.8086.7093.3415.2027.6541.443.9463.7122.0782.0724.1332.0782.2142-.0057.3762-.388.7611-.7673 1.1402-1.1495.599-.5993 1.198-1.2015 1.8029-1.798.0839-.0839.0984-.1389-.0029-.2142-.0984-.0753-.1852-.1679-.2807-.249-.8479-.718-1.7798-1.3-2.81-1.72561-1.1228-.47193-2.2977-.72672-3.5103-.79621-1.2443-.06948-2.4742.05791-3.6752.40245-.7495.21715-1.4701.50378-2.1559.87147-.9405.5096-1.8 1.135-2.5582 1.8935-.7003.7007-1.3109 1.468-1.8 2.325-.1042.1824-.2026.3648-.2952.553l3.681 2.8663c.3878-1.1726 1.0534-2.1657 1.9997-2.9792z" fill="#da4030"/><path d="m21.1456 26.5409c-.6598.0985-1.3167.1129-1.9736.029-1.1026-.1419-2.0981-.5646-2.9865-1.2305-.7293-.5472-1.3225-1.2218-1.7797-2.0123-.2258-.3937-.411-.8048-.5499-1.2333l-3.6723 2.8692c.1389.2722.2865.5385.4485.802.6627 1.0713 1.4817 2.0035 2.4598 2.7968.6772.5502 1.4036 1.0192 2.1965 1.384.7119.3301 1.4469.5993 2.2196.773.5846.1332 1.1749.2346 1.771.2635 1.1894.055 2.3672-.0087 3.5306-.2895.544-.1332 1.0794-.2953 1.5945-.5096.7119-.2982 1.3862-.6688 2.0141-1.1263.3068-.2229.5991-.4661.8711-.7238l-3.5537-2.765c-.7871.5183-1.6524.8368-2.59.9728z" fill="#51ac47"/><path d="m30.3541 18.1473c-.0405-.2171-.0376-.2171-.2546-.2171-1.6437 0-3.2904 0-4.9341 0-1.6495 0-3.299 0-4.9485 0-.2228 0-.2286.0058-.2286.2258v3.7929c0 .2403 0 .2403.2373.2403h5.4983c.2026 0 .2113.0086.1679.2055-.1071.498-.2836.97-.5296 1.4158-.3849.6949-.9029 1.274-1.5627 1.7169-.0202.0145-.0405.0261-.0608.0406l3.5537 2.765c.3386-.3185.6511-.663.9434-1.0278.7611-.9497 1.3138-2.0152 1.6958-3.1704.3386-1.0278.5238-2.0846.5817-3.1617.0492-.9438.0116-1.8906-.1592-2.8258z" fill="#6076b9"/><path d="m13.6963 21.5002c-.1042-.4661-.1794-.9381-.1852-1.4158-.0058-.663.0897-1.3173.2807-1.9514.0203-.0695.0434-.1361.0637-.2027l-3.681-2.8663c-.26916.5356-.49199 1.0944-.6743 1.6706-.26334.8338-.42251 1.685-.47749 2.5536-.07524 1.216.03473 2.4176.35595 3.596.19678.7238.46302 1.4187.80164 2.0817l3.6723-2.8693c-.0579-.1968-.1129-.3937-.1563-.5964z" fill="#ecbf1c"/></svg>