<svg fill="none" height="40" viewBox="0 0 156 40" width="156" xmlns="http://www.w3.org/2000/svg"><g fill="#542ded"><path d="m15.8834 30c-.6593 0-1.3038.1955-1.8519.5618-.5482.3662-.9754.8868-1.2277 1.4959s-.3183 1.2793-.1897 1.9259.4461 1.2406.9123 1.7068c.4661.4661 1.0601.7836 1.7067.9122s1.3168.0626 1.9259-.1897 1.1297-.6795 1.496-1.2277c.3662-.5481.5617-1.1926.5617-1.8519 0-.884-.3512-1.7319-.9763-2.357s-1.473-.9763-2.357-.9763z" opacity=".64"/><path d="m29.2334 30c-.6593 0-1.3038.1955-1.8519.5618-.5482.3662-.9754.8868-1.2277 1.4959s-.3183 1.2793-.1897 1.9259.4461 1.2406.9122 1.7068c.4662.4661 1.0602.7836 1.7068.9122s1.3168.0626 1.9259-.1897 1.1297-.6795 1.4959-1.2277c.3663-.5481.5618-1.1926.5618-1.8519 0-.884-.3512-1.7319-.9763-2.357s-1.473-.9763-2.357-.9763z" opacity=".64"/><path d="m32.5 6.6665h-21.7667c-.2058.00713-.4018.09025-.55.23334l3.3334 14.53336c0 .1166 0 .2166.1166.3333.3886.4719.8774.8514 1.4309 1.1109.5535.2594 1.1579.3924 1.7691.3891h12.4c1.9676-.0217 3.8482-.8141 5.238-2.2071 1.3899-1.3929 2.178-3.2753 2.1954-5.2429v-5c-.0044-1.10217-.4454-2.15771-1.2263-2.93551s-1.8382-1.21449-2.9404-1.21449z"/><path d="m30.2334 27.9833h-11.3334c-1.7581.0074-3.4659-.5871-4.8394-1.6846-1.3735-1.0976-2.33-2.6322-2.7106-4.3487l-3.33329-14.7167c-.11169-.49429-.38579-.9369-.77854-1.25714-.39274-.32024-.88147-.49963-1.38813-.50953h-1.45c-.2829 0-.55421-.11238-.75425-.31241-.20004-.20004-.31242-.47135-.31242-.75425s.11238-.55421.31242-.75425.47135-.31242.75425-.31242h1.45c1.00105-.00476 1.97356.33327 2.75585.95789.78228.62461 1.3272 1.49818 1.54411 2.47544l3.3334 14.71667c.2772 1.2418.9703 2.3517 1.9645 3.1458s2.2298 1.2249 3.5021 1.2209h11.3334c.2829 0 .5542.1123.7542.3124.2001.2.3124.4713.3124.7542s-.1123.5542-.3124.7543c-.2.2-.4713.3124-.7542.3124z" opacity=".8"/><path d="m57.62 18.2c-1.36 0-2.4467-.42-3.26-1.26-.8133-.8533-1.26-2.0133-1.34-3.48l-.02-.68.02-.66c.08-1.44.5267-2.58667 1.34-3.44s1.9-1.28 3.26-1.28c1.4667 0 2.6.46667 3.4 1.4.8133.93333 1.22 2.2 1.22 3.8v.36c0 .1333-.0467.2467-.14.34-.08.08-.1867.12-.32.12h-6.94v.18c.04.8667.3067 1.6067.8 2.22s1.1467.92 1.96.92c.6267 0 1.1333-.12 1.52-.36.4-.2533.7-.5133.9-.78.12-.16.2133-.2533.28-.28.0667-.04.18-.06.34-.06h.88c.12 0 .22.0333.3.1.0933.0667.14.1533.14.26 0 .2933-.18.6467-.54 1.06s-.8733.7733-1.54 1.08c-.6533.2933-1.4067.44-2.26.44zm2.8-6.14v-.06c0-.9333-.2533-1.6933-.76-2.28-.5067-.58667-1.1867-.88-2.04-.88-.8667 0-1.5467.29333-2.04.88-.4933.5867-.74 1.3467-.74 2.28v.06zm7.6119 6.14c-1.4267 0-2.54-.4-3.34-1.2-.8-.8133-1.22-1.9467-1.26-3.4l-.02-.8.02-.8c.04-1.4533.46-2.58 1.26-3.38.8-.81333 1.9133-1.22 3.34-1.22.96 0 1.7666.17333 2.42.52.6666.33333 1.16.75333 1.48 1.26.3333.50667.5133 1.0133.54 1.52.0133.12-.0334.2267-.14.32-.0934.0933-.2.14-.32.14h-.88c-.1334 0-.2334-.0267-.3-.08-.0667-.0667-.1334-.18-.2-.34-.24-.6533-.5734-1.11333-1-1.38-.4134-.28-.94-.42-1.58-.42-.84 0-1.5067.26-2 .78-.4934.52-.76 1.3133-.8 2.38l-.02.7.02.7c.04 1.0667.3066 1.86.8 2.38.4933.52 1.16.78 2 .78.6533 0 1.1866-.1333 1.6-.4.4133-.28.74-.7467.98-1.4.0666-.16.1333-.2667.2-.32.0666-.0667.1666-.1.3-.1h.88c.12 0 .2266.0467.32.14.1066.0933.1533.2.14.32-.0267.4933-.2067.9933-.54 1.5-.32.5067-.8134.9333-1.48 1.28-.6534.3467-1.46.52-2.42.52zm10.2561 0c-1.4667 0-2.6-.4133-3.4-1.24-.7867-.8267-1.2067-1.9267-1.26-3.3l-.02-.86.02-.86c.0533-1.3733.48-2.47333 1.28-3.3.8133-.82667 1.94-1.24 3.38-1.24s2.56.41333 3.36 1.24c.8133.82667 1.2466 1.9267 1.3 3.3.0266.2933.04.58.04.86s-.0134.5667-.04.86c-.0534 1.3733-.48 2.4733-1.28 3.3-.7867.8267-1.9134 1.24-3.38 1.24zm0-1.5c.8533 0 1.5266-.2667 2.02-.8.5066-.5467.78-1.3267.82-2.34.0133-.1333.02-.3867.02-.76s-.0067-.6267-.02-.76c-.04-1.0133-.3134-1.7867-.82-2.32-.4934-.54667-1.1667-.82-2.02-.82-.8534 0-1.5334.27333-2.04.82-.4934.5333-.76 1.3067-.8 2.32l-.02.76.02.76c.04 1.0133.3066 1.7933.8 2.34.5066.5333 1.1866.8 2.04.8zm6.8853 1.3c-.1334 0-.2467-.04-.34-.12-.08-.0933-.12-.2067-.12-.34v-9.48c0-.13333.04-.24.12-.32.0933-.09333.2066-.14.34-.14h.84c.1333 0 .24.04667.32.14.08.08.12.18667.12.32v.68c.72-.89333 1.6933-1.34 2.92-1.34 1.4666 0 2.5066.61333 3.12 1.84.32-.56.7733-1.00667 1.36-1.34.6-.33333 1.2666-.5 2-.5 1.0933 0 1.9866.37333 2.68 1.12.6933.74667 1.04 1.8267 1.04 3.24v5.78c0 .1333-.0467.2467-.14.34-.08.08-.1867.12-.32.12h-.86c-.1334 0-.2467-.04-.34-.12-.08-.0933-.12-.2067-.12-.34v-5.6c0-1.0667-.22-1.8267-.66-2.28-.44-.46667-1.02-.7-1.74-.7-.64 0-1.1934.24-1.66.72-.4534.4667-.68 1.22-.68 2.26v5.6c0 .1333-.0467.2467-.14.34-.08.08-.1867.12-.32.12h-.88c-.1334 0-.2467-.04-.34-.12-.08-.0933-.12-.2067-.12-.34v-5.6c0-1.0533-.2334-1.8133-.7-2.28-.4534-.46667-1.02-.7-1.7-.7-.64 0-1.1934.23333-1.66.7-.4534.4667-.68 1.22-.68 2.26v5.62c0 .1333-.0467.2467-.14.34-.08.08-.1867.12-.32.12zm16.9537 0c-.133 0-.246-.04-.34-.12-.08-.0933-.12-.2067-.12-.34v-9.48c0-.13333.04-.24.12-.32.094-.09333.207-.14.34-.14h.84c.134 0 .24.04667.32.14.08.08.12.18667.12.32v.68c.72-.89333 1.694-1.34 2.92-1.34 1.467 0 2.507.61333 3.12 1.84.32-.56.774-1.00667 1.36-1.34.6-.33333 1.267-.5 2-.5 1.094 0 1.987.37333 2.68 1.12.694.74667 1.04 1.8267 1.04 3.24v5.78c0 .1333-.046.2467-.14.34-.08.08-.186.12-.32.12h-.86c-.133 0-.246-.04-.34-.12-.08-.0933-.12-.2067-.12-.34v-5.6c0-1.0667-.22-1.8267-.66-2.28-.44-.46667-1.02-.7-1.74-.7-.64 0-1.193.24-1.66.72-.453.4667-.68 1.22-.68 2.26v5.6c0 .1333-.046.2467-.14.34-.08.08-.186.12-.32.12h-.88c-.133 0-.246-.04-.34-.12-.08-.0933-.12-.2067-.12-.34v-5.6c0-1.0533-.233-1.8133-.7-2.28-.453-.46667-1.02-.7-1.7-.7-.64 0-1.193.23333-1.66.7-.453.4667-.68 1.22-.68 2.26v5.62c0 .1333-.046.2467-.14.34-.08.08-.186.12-.32.12zm20.614.2c-1.36 0-2.447-.42-3.26-1.26-.813-.8533-1.26-2.0133-1.34-3.48l-.02-.68.02-.66c.08-1.44.527-2.58667 1.34-3.44s1.9-1.28 3.26-1.28c1.467 0 2.6.46667 3.4 1.4.813.93333 1.22 2.2 1.22 3.8v.36c0 .1333-.047.2467-.14.34-.08.08-.187.12-.32.12h-6.94v.18c.04.8667.307 1.6067.8 2.22s1.147.92 1.96.92c.627 0 1.133-.12 1.52-.36.4-.2533.7-.5133.9-.78.12-.16.213-.2533.28-.28.067-.04.18-.06.34-.06h.88c.12 0 .22.0333.3.1.093.0667.14.1533.14.26 0 .2933-.18.6467-.54 1.06s-.873.7733-1.54 1.08c-.653.2933-1.407.44-2.26.44zm2.8-6.14v-.06c0-.9333-.253-1.6933-.76-2.28-.507-.58667-1.187-.88-2.04-.88-.867 0-1.547.29333-2.04.88-.493.5867-.74 1.3467-.74 2.28v.06zm3.912 5.94c-.133 0-.247-.04-.34-.12-.08-.0933-.12-.2067-.12-.34v-9.46c0-.13333.04-.24667.12-.34.093-.09333.207-.14.34-.14h.84c.147 0 .26.04667.34.14.093.08.14.19333.14.34v.88c.547-.90667 1.473-1.36 2.78-1.36h.78c.147 0 .26.04.34.12s.12.19333.12.34v.74c0 .13333-.04.24667-.12.34-.08.08-.193.12-.34.12h-1.14c-.733 0-1.313.21333-1.74.64-.413.4267-.62 1.0067-.62 1.74v5.9c0 .1333-.047.2467-.14.34-.093.08-.207.12-.34.12zm10.224.2c-1.426 0-2.54-.4-3.34-1.2-.8-.8133-1.22-1.9467-1.26-3.4l-.02-.8.02-.8c.04-1.4533.46-2.58 1.26-3.38.8-.81333 1.914-1.22 3.34-1.22.96 0 1.767.17333 2.42.52.667.33333 1.16.75333 1.48 1.26.334.50667.514 1.0133.54 1.52.014.12-.033.2267-.14.32-.093.0933-.2.14-.32.14h-.88c-.133 0-.233-.0267-.3-.08-.066-.0667-.133-.18-.2-.34-.24-.6533-.573-1.11333-1-1.38-.413-.28-.94-.42-1.58-.42-.84 0-1.506.26-2 .78-.493.52-.76 1.3133-.8 2.38l-.02.7.02.7c.04 1.0667.307 1.86.8 2.38.494.52 1.16.78 2 .78.654 0 1.187-.1333 1.6-.4.414-.28.74-.7467.98-1.4.067-.16.134-.2667.2-.32.067-.0667.167-.1.3-.1h.88c.12 0 .227.0467.32.14.107.0933.154.2.14.32-.026.4933-.206.9933-.54 1.5-.32.5067-.813.9333-1.48 1.28-.653.3467-1.46.52-2.42.52zm10.156 0c-1.36 0-2.446-.42-3.26-1.26-.813-.8533-1.26-2.0133-1.34-3.48l-.02-.68.02-.66c.08-1.44.527-2.58667 1.34-3.44.814-.85333 1.9-1.28 3.26-1.28 1.467 0 2.6.46667 3.4 1.4.814.93333 1.22 2.2 1.22 3.8v.36c0 .1333-.046.2467-.14.34-.08.08-.186.12-.32.12h-6.94v.18c.04.8667.307 1.6067.8 2.22.494.6133 1.147.92 1.96.92.627 0 1.134-.12 1.52-.36.4-.2533.7-.5133.9-.78.12-.16.214-.2533.28-.28.067-.04.18-.06.34-.06h.88c.12 0 .22.0333.3.1.094.0667.14.1533.14.26 0 .2933-.18.6467-.54 1.06s-.873.7733-1.54 1.08c-.653.2933-1.406.44-2.26.44zm2.8-6.14v-.06c0-.9333-.253-1.6933-.76-2.28-.506-.58667-1.186-.88-2.04-.88-.866 0-1.546.29333-2.04.88-.493.5867-.74 1.3467-.74 2.28v.06z"/><path clip-rule="evenodd" d="m95 22h-36.25l-6.75 9 6.75 9h32.25zm2 0-4 18h6.25l6.75-9-6.75-9z" fill-rule="evenodd"/></g><path d="m59.9101 35c-.08 0-.148-.028-.204-.084s-.084-.124-.084-.204v-7.812c0-.088.024-.16.072-.216.056-.056.128-.084.216-.084h1.104c.088 0 .16.028.216.084s.084.128.084.216v3.084h3.504v-3.084c0-.088.028-.16.084-.216s.124-.084.204-.084h1.116c.088 0 .156.028.204.084.056.056.084.128.084.216v7.812c0 .08-.028.148-.084.204-.048.056-.116.084-.204.084h-1.116c-.08 0-.148-.028-.204-.084s-.084-.124-.084-.204v-3.204h-3.504v3.204c0 .08-.028.148-.084.204s-.128.084-.216.084zm10.1336 0c-.08 0-.148-.028-.204-.084s-.084-.124-.084-.204v-6.612h-2.22c-.08 0-.148-.028-.204-.084s-.084-.128-.084-.216v-.9c0-.088.024-.16.072-.216.056-.056.128-.084.216-.084h6.132c.088 0 .16.028.216.084s.084.128.084.216v.9c0 .088-.028.16-.084.216s-.128.084-.216.084h-2.208v6.612c0 .08-.028.148-.084.204-.048.056-.116.084-.204.084zm4.9494 0c-.08 0-.148-.028-.204-.084s-.084-.124-.084-.204v-7.812c0-.088.024-.16.072-.216.056-.056.128-.084.216-.084h.972c.152 0 .272.076.36.228l2.316 4.296 2.316-4.296c.088-.152.208-.228.36-.228h.96c.088 0 .16.028.216.084s.084.128.084.216v7.812c0 .088-.028.16-.084.216-.056.048-.128.072-.216.072h-1.032c-.08 0-.148-.028-.204-.084s-.084-.124-.084-.204v-5.16l-1.668 3.168c-.088.176-.22.264-.396.264h-.504c-.168 0-.304-.088-.408-.264l-1.668-3.168v5.16c0 .08-.028.148-.084.204-.048.056-.116.084-.204.084zm9.2582 0c-.08 0-.148-.028-.204-.084s-.084-.124-.084-.204v-7.824c0-.088.028-.156.084-.204.056-.056.124-.084.204-.084h1.128c.088 0 .156.028.204.084.056.048.084.116.084.204v6.672h3.804c.088 0 .16.028.216.084s.084.124.084.204v.864c0 .08-.028.148-.084.204s-.128.084-.216.084z" fill="#fff"/></svg>